<svg width="27" height="27" viewBox="0 0 27 27" fill="none" xmlns="http://www.w3.org/2000/svg">
<g id="icon-park-solid:water" clip-path="url(#clip0_1_294)">
<g id="Mask group">
<mask id="mask0_1_294" style="mask-type:luminance" maskUnits="userSpaceOnUse" x="0" y="0" width="27" height="27">
<g id="Group">
<path id="Vector" d="M5.098 16.3125C5.46483 16.3125 5.82806 16.2398 6.16696 16.0984C6.50586 15.9571 6.81379 15.7499 7.07317 15.4887C7.33256 15.2276 7.53831 14.9175 7.67869 14.5763C7.81907 14.2351 7.89132 13.8693 7.89132 13.5C7.89132 14.2459 8.18561 14.9613 8.70946 15.4887C9.23331 16.0162 9.9438 16.3125 10.6846 16.3125C11.4255 16.3125 12.136 16.0162 12.6598 15.4887C13.1837 14.9613 13.4779 14.2459 13.4779 13.5C13.4779 14.2459 13.7722 14.9613 14.2961 15.4887C14.8199 16.0162 15.5304 16.3125 16.2713 16.3125C17.0121 16.3125 17.7226 16.0162 18.2464 15.4887C18.7703 14.9613 19.0646 14.2459 19.0646 13.5C19.0646 14.2459 19.3589 14.9613 19.8827 15.4887C20.4066 16.0162 21.1171 16.3125 21.8579 16.3125C22.5987 16.3125 23.3092 16.0162 23.8331 15.4887C24.3569 14.9613 24.6512 14.2459 24.6512 13.5C24.6512 19.7134 19.6489 24.75 13.4779 24.75C7.30696 24.75 2.30469 19.7134 2.30469 13.5C2.30469 14.2459 2.59898 14.9613 3.12283 15.4887C3.64668 16.0162 4.35717 16.3125 5.098 16.3125ZM15.7126 7.3125C15.7126 7.90924 15.4772 8.48153 15.0581 8.90349C14.639 9.32545 14.0706 9.5625 13.4779 9.5625C12.8853 9.5625 12.3169 9.32545 11.8978 8.90349C11.4787 8.48153 11.2433 7.90924 11.2433 7.3125C11.2433 6.06938 13.4779 2.25 13.4779 2.25C13.4779 2.25 15.7126 6.06938 15.7126 7.3125Z" fill="white" stroke="white" stroke-width="4" stroke-linecap="round" stroke-linejoin="round"/>
</g>
</mask>
<g mask="url(#mask0_1_294)">
<path id="Vector_2" d="M0.0700378 0H26.8859V27H0.0700378V0Z" fill="#427A6F"/>
</g>
</g>
</g>
<defs>
<clipPath id="clip0_1_294">
<rect width="26.8158" height="27" fill="white" transform="translate(0.0700378)"/>
</clipPath>
</defs>
</svg>
