<svg width="32" height="32" viewBox="0 0 32 32" fill="none" xmlns="http://www.w3.org/2000/svg">
<g id="game-icons:water-tank">
<path id="Vector" d="M10.0737 1.5625C9.17365 1.5625 7.71492 1.80563 6.55414 2.2725C5.97748 2.50563 5.47344 2.79562 5.14569 3.10063C5.03715 3.20105 4.94087 3.31414 4.85891 3.4375H15.2879C15.2134 3.32687 15.1265 3.21563 15.0024 3.10063C14.6734 2.79562 14.1706 2.50563 13.5933 2.2725C12.4325 1.80563 10.9738 1.5625 10.0737 1.5625ZM5.66649 4.5625V12.6812L10.0737 15.3438L14.4809 12.6812V4.5625H5.66649ZM16.0328 9.4375V10.5625H17.4605V11.4375H15.5983V12.5625H18.7827L20.6014 14.4L21.396 13.6L19.242 11.4375H18.5778V10.5625H20.0055V9.4375H16.0328ZM5.39647 13.8313L2.57025 30.9062L3.67268 31.0938L4.754 24.5625H15.3934L16.4735 31.0938L17.5784 30.9062L14.7541 13.8313L13.7174 14.4563L14.5679 19.5688L10.0737 21.2188L5.58082 19.575L6.42999 14.4563L5.39647 13.8313ZM21.7312 15.2312C21.7312 15.2312 21.098 18.3312 22.0539 18.9625C22.6623 19.3625 23.8417 18.7812 23.9782 18C24.2141 16.775 21.7312 15.2312 21.7312 15.2312ZM23.5437 20.5625C23.5437 20.5625 22.7119 22.3813 23.1837 22.9688C23.4878 23.3375 24.2638 23.2 24.4624 22.7437C24.7852 22.0187 23.5437 20.5625 23.5437 20.5625ZM5.39274 20.7062L8.42876 21.8188L5.00106 23.075L5.39274 20.7062ZM14.7541 20.7062L15.1451 23.075L11.7187 21.8188L14.7541 20.7062ZM25.8653 21.175C25.8653 21.175 25.9522 23.1813 26.635 23.4813C27.0819 23.6688 27.7026 23.1875 27.6778 22.6875C27.6282 21.9 25.8653 21.175 25.8653 21.175ZM10.0737 22.4188L12.8546 23.4375H7.29282L10.0737 22.4188ZM25.6977 24.95C25.6977 24.95 25.4866 26.2937 25.9087 26.5875C26.1756 26.7687 26.6598 26.525 26.7033 26.1938C26.7839 25.6562 25.6977 24.95 25.6977 24.95Z" fill="#427A6F"/>
</g>
</svg>
